<?xml version="1.0" standalone="no"?>
<!DOCTYPE svg PUBLIC "-//W3C//DTD SVG 20010904//EN"
 "http://www.w3.org/TR/2001/REC-SVG-20010904/DTD/svg10.dtd">
<svg version="1.0" xmlns="http://www.w3.org/2000/svg"
 width="246.000000pt" height="217.000000pt" viewBox="0 0 246.000000 217.000000"
 preserveAspectRatio="xMidYMid meet">

<g transform="translate(0.000000,217.000000) scale(0.100000,-0.100000)"
fill="#000000" stroke="none">
<path d="M0 1085 l0 -1085 1230 0 1230 0 0 1085 0 1085 -1230 0 -1230 0 0
-1085z m2095 880 l25 -24 0 -871 0 -871 -25 -24 -24 -25 -871 0 -871 0 -24 25
-25 24 0 871 0 871 25 24 24 25 871 0 871 0 24 -25z"/>
<path d="M380 1775 l0 -115 115 0 115 0 0 115 0 115 -115 0 -115 0 0 -115z
m200 0 l0 -85 -85 0 -85 0 0 85 0 85 85 0 85 0 0 -85z"/>
<path d="M440 1780 l0 -50 50 0 50 0 0 50 0 50 -50 0 -50 0 0 -50z"/>
<path d="M650 1875 c0 -10 10 -15 30 -15 20 0 30 -5 30 -15 0 -10 -10 -15 -30
-15 -29 0 -30 -1 -30 -50 0 -38 4 -50 15 -50 8 0 15 7 15 15 0 10 11 15 35 15
24 0 35 -5 35 -15 0 -8 -9 -15 -20 -15 -16 0 -20 -7 -20 -35 0 -24 -5 -35 -15
-35 -8 0 -15 7 -15 15 0 8 -7 15 -15 15 -8 0 -15 -7 -15 -15 0 -8 7 -15 15
-15 8 0 15 -9 15 -20 0 -11 -7 -20 -15 -20 -10 0 -15 -10 -15 -30 0 -20 5 -30
15 -30 8 0 15 -9 15 -20 0 -11 7 -20 15 -20 8 0 15 9 15 20 0 13 7 20 20 20
16 0 20 -7 20 -35 0 -24 5 -35 15 -35 8 0 15 -7 15 -15 0 -10 -11 -15 -35 -15
-24 0 -35 5 -35 15 0 10 -10 15 -30 15 -20 0 -30 5 -30 15 0 8 -9 15 -20 15
-13 0 -20 7 -20 20 0 11 -7 20 -15 20 -8 0 -15 7 -15 15 0 8 7 15 15 15 8 0
15 7 15 15 0 8 -7 15 -15 15 -8 0 -15 -7 -15 -15 0 -8 -9 -15 -20 -15 -11 0
-20 -7 -20 -15 0 -8 -7 -15 -15 -15 -8 0 -15 -9 -15 -20 0 -11 7 -20 15 -20 8
0 15 9 15 20 0 13 7 20 20 20 13 0 20 -7 20 -20 0 -11 7 -20 15 -20 8 0 15 -7
15 -15 0 -8 9 -15 20 -15 11 0 20 -7 20 -15 0 -8 -9 -15 -20 -15 -13 0 -20 -7
-20 -20 0 -11 -7 -20 -15 -20 -8 0 -15 -7 -15 -15 0 -10 11 -15 35 -15 24 0
35 -5 35 -15 0 -8 7 -15 15 -15 8 0 15 7 15 15 0 8 7 15 15 15 8 0 15 7 15 15
0 8 -7 15 -15 15 -8 0 -15 -7 -15 -15 0 -8 -7 -15 -15 -15 -8 0 -15 7 -15 15
0 8 7 15 15 15 8 0 15 9 15 20 0 11 7 20 15 20 8 0 15 -9 15 -20 0 -13 7 -20
20 -20 11 0 20 -7 20 -15 0 -8 -9 -15 -20 -15 -16 0 -20 -7 -20 -35 0 -28 4
-35 20 -35 13 0 20 7 20 20 0 11 7 20 15 20 10 0 15 10 15 30 0 20 5 30 15 30
8 0 15 9 15 20 0 13 7 20 20 20 13 0 20 -7 20 -20 0 -11 7 -20 15 -20 10 0 15
-10 15 -30 0 -20 -5 -30 -15 -30 -8 0 -15 7 -15 15 0 8 -9 15 -20 15 -11 0
-20 -7 -20 -15 0 -8 9 -15 20 -15 16 0 20 -7 20 -35 0 -24 5 -35 15 -35 8 0
15 -9 15 -20 0 -17 -7 -20 -50 -20 -38 0 -50 -4 -50 -15 0 -8 7 -15 15 -15 8
0 15 -7 15 -15 0 -8 -7 -15 -15 -15 -8 0 -15 -9 -15 -20 0 -11 -7 -20 -15 -20
-8 0 -15 9 -15 20 0 11 7 20 15 20 8 0 15 7 15 15 0 8 -7 15 -15 15 -8 0 -15
7 -15 15 0 8 7 15 15 15 8 0 15 9 15 20 0 11 7 20 15 20 8 0 15 7 15 15 0 10
-10 15 -30 15 -20 0 -30 -5 -30 -15 0 -8 -9 -15 -20 -15 -16 0 -20 -7 -20 -35
0 -24 -5 -35 -15 -35 -10 0 -15 11 -15 35 0 24 5 35 15 35 8 0 15 7 15 15 0
11 -12 15 -50 15 -38 0 -50 -4 -50 -15 0 -8 9 -15 20 -15 12 0 20 -7 20 -16 0
-9 -9 -18 -20 -21 -11 -3 -20 -12 -20 -19 0 -8 -7 -14 -15 -14 -8 0 -15 7 -15
15 0 8 7 15 15 15 8 0 15 9 15 20 0 11 -7 20 -15 20 -8 0 -15 7 -15 15 0 8 7
15 15 15 8 0 15 9 15 20 0 16 -7 20 -31 20 -22 0 -32 -5 -36 -20 -3 -11 -12
-20 -19 -20 -11 0 -14 -16 -14 -65 0 -51 -3 -65 -15 -65 -8 0 -15 -9 -15 -20
0 -13 -7 -20 -20 -20 -13 0 -20 7 -20 20 0 16 -7 20 -30 20 -23 0 -30 -4 -30
-20 0 -11 7 -20 15 -20 8 0 15 -7 15 -15 0 -8 7 -15 15 -15 8 0 15 -7 15 -15
0 -10 11 -15 35 -15 28 0 35 -4 35 -20 0 -16 -7 -20 -35 -20 l-35 0 0 -50 0
-50 35 0 c28 0 35 4 35 20 0 11 7 20 15 20 8 0 15 -9 15 -20 0 -11 -7 -20 -15
-20 -8 0 -15 -7 -15 -15 0 -12 -14 -15 -65 -15 -51 0 -65 -3 -65 -15 0 -10 10
-15 30 -15 30 0 30 -1 30 -55 0 -54 0 -55 -30 -55 l-30 0 0 -65 c0 -51 3 -65
15 -65 11 0 15 -12 15 -50 0 -38 -4 -50 -15 -50 -8 0 -15 -7 -15 -15 0 -11 12
-15 50 -15 38 0 50 4 50 15 0 8 7 15 15 15 8 0 15 7 15 15 0 10 -11 15 -35 15
-28 0 -35 4 -35 20 0 17 7 20 50 20 43 0 50 -3 50 -20 0 -16 7 -20 35 -20 28
0 35 4 35 20 0 13 7 20 20 20 11 0 20 7 20 15 0 8 -9 15 -20 15 -11 0 -20 7
-20 15 0 8 -7 15 -15 15 -8 0 -15 9 -15 20 0 16 -7 20 -35 20 -24 0 -35 5 -35
15 0 8 -7 15 -15 15 -8 0 -15 7 -15 15 0 8 7 15 15 15 8 0 15 9 15 20 0 11 -7
20 -15 20 -8 0 -15 7 -15 15 0 8 7 15 15 15 10 0 15 11 15 35 0 24 5 35 15 35
8 0 15 7 15 15 0 8 9 15 20 15 11 0 20 -7 20 -15 0 -8 7 -15 15 -15 8 0 15 7
15 15 0 8 -7 15 -15 15 -8 0 -15 9 -15 20 0 11 7 20 15 20 8 0 15 -9 15 -20 0
-13 7 -20 20 -20 13 0 20 7 20 20 0 11 7 20 15 20 8 0 15 7 15 15 0 8 7 15 15
15 10 0 15 -11 15 -35 0 -32 -2 -35 -30 -35 -20 0 -30 -5 -30 -15 0 -8 -9 -15
-20 -15 -11 0 -20 -7 -20 -15 0 -8 -7 -15 -15 -15 -8 0 -15 -9 -15 -20 0 -16
7 -20 35 -20 28 0 35 4 35 20 0 11 7 20 15 20 8 0 15 7 15 15 0 8 7 15 15 15
8 0 15 7 15 15 0 8 9 15 20 15 11 0 20 -7 20 -15 0 -10 10 -15 30 -15 20 0 30
-5 30 -15 0 -8 9 -15 20 -15 16 0 20 7 20 30 0 23 -4 30 -20 30 -13 0 -20 7
-20 20 0 11 -7 20 -15 20 -8 0 -15 -9 -15 -20 0 -11 -7 -20 -15 -20 -8 0 -15
9 -15 20 0 11 7 20 15 20 8 0 15 7 15 15 0 10 11 15 35 15 33 0 35 -2 35 -35
0 -24 5 -35 15 -35 8 0 15 -7 15 -15 0 -8 7 -15 15 -15 8 0 15 -7 15 -15 0 -8
9 -15 20 -15 11 0 20 7 20 15 0 8 -9 15 -20 15 -11 0 -20 7 -20 15 0 8 9 15
20 15 13 0 20 7 20 20 0 17 7 20 50 20 38 0 50 4 50 15 0 8 -7 15 -15 15 -8 0
-15 7 -15 15 0 8 7 15 15 15 8 0 15 -7 15 -15 0 -10 11 -15 35 -15 24 0 35 -5
35 -15 0 -8 7 -15 15 -15 8 0 15 -9 15 -20 0 -11 -7 -20 -15 -20 -8 0 -15 9
-15 20 0 13 -7 20 -20 20 -13 0 -20 -7 -20 -20 0 -17 -7 -20 -50 -20 -38 0
-50 -4 -50 -15 0 -8 9 -15 20 -15 11 0 20 -7 20 -15 0 -8 -9 -15 -20 -15 -16
0 -20 -7 -20 -35 0 -28 4 -35 20 -35 11 0 20 7 20 15 0 8 7 15 15 15 10 0 15
-11 15 -35 0 -24 5 -35 15 -35 8 0 15 -7 15 -15 0 -8 -7 -15 -15 -15 -8 0 -15
-7 -15 -15 0 -8 7 -15 15 -15 8 0 15 7 15 15 0 10 11 15 35 15 33 0 35 -2 35
-35 0 -33 -2 -35 -35 -35 -24 0 -35 -5 -35 -15 0 -8 9 -15 20 -15 11 0 20 -7
20 -15 0 -10 -11 -15 -35 -15 -24 0 -35 5 -35 15 0 8 -7 15 -15 15 -8 0 -15 7
-15 15 0 8 -9 15 -20 15 -17 0 -20 7 -20 50 0 38 -4 50 -15 50 -10 0 -15 -10
-15 -30 0 -23 -4 -30 -20 -30 -17 0 -20 7 -20 50 0 38 -4 50 -15 50 -8 0 -15
-9 -15 -20 0 -11 -7 -20 -15 -20 -8 0 -15 9 -15 20 0 16 -7 20 -35 20 -28 0
-35 -4 -35 -20 0 -16 -7 -20 -35 -20 -24 0 -35 -5 -35 -15 0 -8 -7 -15 -15
-15 -8 0 -15 -7 -15 -15 0 -8 -7 -15 -15 -15 -8 0 -15 7 -15 15 0 10 -11 15
-35 15 -24 0 -35 -5 -35 -15 0 -8 7 -15 15 -15 8 0 15 -9 15 -20 0 -17 7 -20
50 -20 49 0 50 -1 50 -30 0 -20 -5 -30 -15 -30 -8 0 -15 -9 -15 -20 0 -11 -7
-20 -15 -20 -8 0 -15 -7 -15 -15 0 -10 -11 -15 -35 -15 -24 0 -35 -5 -35 -15
0 -10 10 -15 31 -15 22 0 32 -5 36 -20 4 -17 14 -20 54 -20 l49 0 0 -50 0 -50
-50 0 -50 0 0 -65 c0 -51 3 -65 15 -65 10 0 15 10 15 30 0 28 3 30 35 30 33 0
35 2 35 35 0 24 5 35 15 35 8 0 15 -7 15 -15 0 -8 7 -15 15 -15 11 0 15 -12
15 -50 0 -43 3 -50 20 -50 16 0 20 7 20 30 0 27 3 30 30 30 27 0 30 -3 30 -30
0 -23 4 -30 20 -30 16 0 20 7 20 30 0 23 -4 30 -20 30 -16 0 -20 7 -20 35 0
33 2 35 35 35 24 0 35 -5 35 -15 0 -8 -7 -15 -15 -15 -8 0 -15 -9 -15 -20 0
-16 7 -20 35 -20 24 0 35 -5 35 -15 0 -8 -9 -15 -20 -15 -11 0 -20 -7 -20 -15
0 -12 14 -15 70 -15 56 0 70 3 70 15 0 10 -11 15 -35 15 -24 0 -35 5 -35 15 0
8 7 15 15 15 8 0 15 9 15 20 0 13 7 20 20 20 11 0 20 7 20 15 0 12 19 15 115
15 96 0 115 3 115 15 0 8 7 15 15 15 10 0 15 11 15 35 0 24 -5 35 -15 35 -8 0
-15 -7 -15 -15 0 -8 -7 -15 -15 -15 -9 0 -15 -9 -15 -21 0 -14 -5 -19 -17 -17
-15 3 -18 16 -21 86 -2 64 -6 82 -17 82 -8 0 -15 -7 -15 -15 0 -10 -11 -15
-35 -15 -24 0 -35 5 -35 15 0 8 -7 15 -15 15 -11 0 -15 12 -15 50 0 38 4 50
15 50 11 0 15 -12 15 -50 0 -43 3 -50 20 -50 13 0 20 7 20 20 0 11 7 20 15 20
8 0 15 7 15 15 0 8 -7 15 -15 15 -8 0 -15 7 -15 15 0 8 7 15 15 15 10 0 15 11
15 35 0 24 5 35 15 35 10 0 15 11 15 35 0 28 4 35 20 35 16 0 20 -7 20 -35 0
-24 5 -35 15 -35 8 0 15 7 15 15 0 8 7 15 15 15 8 0 15 9 15 20 0 11 -7 20
-15 20 -8 0 -15 7 -15 15 0 8 -7 15 -15 15 -10 0 -15 11 -15 35 0 28 -4 35
-20 35 -11 0 -20 7 -20 15 0 10 -10 15 -30 15 -23 0 -30 4 -30 20 0 16 7 20
30 20 27 0 30 3 30 30 0 23 4 30 20 30 16 0 20 7 20 35 0 28 -4 35 -20 35 -11
0 -20 7 -20 15 0 10 -10 15 -30 15 -23 0 -30 4 -30 20 0 17 -7 20 -50 20 -38
0 -50 4 -50 15 0 8 -9 15 -20 15 -11 0 -20 7 -20 15 0 11 12 15 50 15 38 0 50
-4 50 -15 0 -12 14 -15 70 -15 56 0 70 -3 70 -15 0 -8 -9 -15 -20 -15 -13 0
-20 -7 -20 -20 0 -16 7 -20 35 -20 32 0 35 -2 35 -30 0 -20 5 -30 15 -30 8 0
15 -9 15 -20 0 -16 7 -20 35 -20 28 0 35 4 35 20 0 11 -7 20 -15 20 -8 0 -15
7 -15 15 0 8 7 15 15 15 8 0 15 -7 15 -15 0 -8 9 -15 20 -15 17 0 20 7 20 50
0 43 -3 50 -20 50 -16 0 -20 7 -20 30 0 20 -5 30 -15 30 -8 0 -15 9 -15 20 0
14 -7 20 -21 20 -17 0 -20 5 -17 32 4 38 38 55 38 19 0 -17 6 -21 35 -21 28 0
35 4 35 20 0 11 7 20 15 20 12 0 15 -13 15 -55 l0 -55 35 0 c24 0 35 -5 35
-15 0 -8 7 -15 15 -15 8 0 15 7 15 15 0 8 7 15 15 15 10 0 15 -10 15 -30 0
-29 1 -30 50 -30 43 0 50 -3 50 -20 0 -17 -7 -20 -50 -20 -38 0 -50 -4 -50
-15 0 -8 -7 -15 -15 -15 -8 0 -15 -7 -15 -15 0 -8 -7 -15 -15 -15 -10 0 -15
10 -15 30 0 27 3 30 30 30 23 0 30 4 30 20 0 17 -7 20 -50 20 -43 0 -50 -3
-50 -20 0 -11 -7 -20 -15 -20 -10 0 -15 -10 -15 -30 0 -20 5 -30 15 -30 8 0
15 -9 15 -20 0 -16 7 -20 35 -20 24 0 35 -5 35 -15 0 -10 11 -15 35 -15 24 0
35 -5 35 -15 0 -8 7 -15 15 -15 11 0 15 -12 15 -50 l0 -50 35 0 c28 0 35 -4
35 -20 0 -16 -7 -20 -35 -20 -24 0 -35 -5 -35 -15 0 -12 14 -15 70 -15 63 0
70 -2 70 -20 0 -11 7 -20 15 -20 8 0 15 -7 15 -15 0 -8 -7 -15 -15 -15 -8 0
-15 -7 -15 -15 0 -8 -9 -15 -20 -15 -13 0 -20 -7 -20 -20 0 -13 7 -20 20 -20
11 0 20 -7 20 -15 0 -8 -9 -15 -20 -15 -11 0 -20 7 -20 15 0 8 -7 15 -15 15
-8 0 -15 -7 -15 -15 0 -8 7 -15 15 -15 8 0 15 -7 15 -15 0 -10 11 -15 35 -15
l35 0 0 65 c0 51 3 65 15 65 12 0 15 -14 15 -65 0 -51 -3 -65 -15 -65 -8 0
-15 -9 -15 -20 0 -16 7 -20 35 -20 33 0 35 2 35 35 0 24 5 35 15 35 8 0 15 -7
15 -15 0 -8 7 -15 15 -15 11 0 15 12 15 50 0 49 -1 50 -30 50 -20 0 -30 5 -30
15 0 8 -9 15 -20 15 -11 0 -20 7 -20 15 0 8 -7 15 -15 15 -8 0 -15 9 -15 20 0
11 7 20 15 20 8 0 15 7 15 15 0 8 9 15 20 15 11 0 20 -7 20 -15 0 -8 7 -15 15
-15 8 0 15 7 15 15 0 8 7 15 15 15 11 0 15 12 15 50 0 38 -4 50 -15 50 -8 0
-15 9 -15 20 0 11 -7 20 -15 20 -8 0 -15 7 -15 15 0 10 10 15 30 15 28 0 30 3
30 35 0 24 -5 35 -15 35 -8 0 -15 -9 -15 -20 0 -11 -7 -20 -15 -20 -8 0 -15
-7 -15 -15 0 -10 -11 -15 -35 -15 -33 0 -35 2 -35 35 0 24 5 35 15 35 8 0 15
-9 15 -20 0 -13 7 -20 20 -20 16 0 20 7 20 35 0 24 5 35 15 35 10 0 15 11 15
35 0 33 -2 35 -35 35 -24 0 -35 5 -35 15 0 8 -7 15 -15 15 -8 0 -15 -7 -15
-15 0 -8 7 -15 15 -15 10 0 15 -11 15 -35 0 -24 -5 -35 -15 -35 -8 0 -15 7
-15 15 0 10 -11 15 -35 15 -28 0 -35 4 -35 20 0 13 7 20 20 20 16 0 20 7 20
30 0 23 -4 30 -20 30 -16 0 -20 -7 -20 -30 0 -28 -3 -30 -35 -30 -24 0 -35 5
-35 15 0 10 -10 15 -30 15 -28 0 -30 3 -30 35 0 28 -4 35 -20 35 -11 0 -20 7
-20 15 0 8 -7 15 -15 15 -8 0 -15 -7 -15 -15 0 -8 -7 -15 -15 -15 -8 0 -15 7
-15 15 0 8 -9 15 -20 15 -13 0 -20 7 -20 20 0 11 -7 20 -15 20 -10 0 -15 10
-15 30 0 20 -5 30 -15 30 -8 0 -15 9 -15 20 0 13 -7 20 -20 20 -13 0 -20 -7
-20 -20 0 -13 7 -20 20 -20 11 0 20 -7 20 -15 0 -10 -11 -15 -35 -15 -24 0
-35 5 -35 15 0 8 -9 15 -20 15 -12 0 -20 7 -20 16 0 9 9 18 20 21 14 4 20 14
20 34 0 19 5 29 15 29 8 0 15 -7 15 -15 0 -8 9 -15 20 -15 11 0 20 7 20 15 0
8 7 15 15 15 8 0 15 -7 15 -15 0 -8 -7 -15 -15 -15 -8 0 -15 -7 -15 -15 0 -10
10 -15 30 -15 20 0 30 5 30 15 0 8 9 15 20 15 16 0 20 -7 20 -35 0 -24 5 -35
15 -35 8 0 15 -7 15 -15 0 -8 -7 -15 -15 -15 -8 0 -15 -7 -15 -15 0 -8 7 -15
15 -15 8 0 15 7 15 15 0 8 7 15 15 15 8 0 15 7 15 15 0 8 9 15 20 15 13 0 20
7 20 20 0 16 7 20 30 20 29 0 30 -1 30 -50 l0 -50 -50 0 c-43 0 -50 -3 -50
-20 0 -16 7 -20 35 -20 33 0 35 -2 35 -35 0 -33 2 -35 35 -35 33 0 35 2 35 35
0 28 -4 35 -20 35 -13 0 -20 7 -20 20 0 13 7 20 20 20 11 0 20 7 20 15 0 10
11 15 35 15 24 0 35 5 35 15 0 10 -11 15 -35 15 -28 0 -35 4 -35 20 0 11 7 20
15 20 8 0 15 7 15 15 0 10 -11 15 -35 15 -24 0 -35 5 -35 15 0 12 13 15 55 15
42 0 55 -3 55 -15 0 -8 7 -15 15 -15 10 0 15 11 15 35 0 33 -2 35 -35 35 -24
0 -35 5 -35 15 0 8 -7 15 -15 15 -8 0 -15 7 -15 15 0 8 -9 15 -20 15 -16 0
-20 -7 -20 -30 0 -20 -5 -30 -15 -30 -10 0 -15 10 -15 30 0 20 5 30 15 30 10
0 15 11 15 35 0 24 -5 35 -15 35 -8 0 -15 -7 -15 -15 0 -8 -7 -15 -15 -15 -10
0 -15 11 -15 35 0 33 -2 35 -35 35 -28 0 -35 -4 -35 -20 0 -11 7 -20 15 -20
10 0 15 -11 15 -35 0 -24 -5 -35 -15 -35 -8 0 -15 -7 -15 -15 0 -8 -7 -15 -15
-15 -10 0 -15 11 -15 35 0 24 5 35 15 35 8 0 15 7 15 15 0 8 -7 15 -15 15 -8
0 -15 -7 -15 -15 0 -8 -9 -15 -20 -15 -16 0 -20 -7 -20 -35 0 -28 4 -35 20
-35 16 0 20 -7 20 -35 0 -28 -4 -35 -20 -35 -13 0 -20 7 -20 20 0 11 -7 20
-15 20 -8 0 -15 7 -15 15 0 8 -7 15 -15 15 -8 0 -15 -7 -15 -15 0 -10 -11 -15
-35 -15 l-35 0 0 65 c0 51 3 65 15 65 10 0 15 -11 15 -35 0 -33 2 -35 35 -35
28 0 35 4 35 20 0 11 -7 20 -15 20 -8 0 -15 7 -15 15 0 8 7 15 15 15 8 0 15 9
15 20 0 11 -7 20 -15 20 -8 0 -15 7 -15 15 0 8 -9 15 -20 15 -11 0 -20 -7 -20
-15 0 -10 -11 -15 -35 -15 -24 0 -35 5 -35 15 0 8 9 15 20 15 17 0 20 7 20 50
0 38 4 50 15 50 10 0 15 -11 15 -35 0 -28 4 -35 20 -35 13 0 20 7 20 20 0 16
7 20 30 20 20 0 30 5 30 15 0 8 9 15 20 15 11 0 20 -7 20 -15 0 -8 -9 -15 -20
-15 -13 0 -20 -7 -20 -20 0 -13 7 -20 20 -20 11 0 20 -7 20 -15 0 -8 -9 -15
-20 -15 -16 0 -20 -7 -20 -35 0 -28 4 -35 20 -35 13 0 20 7 20 20 0 11 7 20
15 20 8 0 15 7 15 15 0 8 7 15 15 15 10 0 15 11 15 35 0 24 -5 35 -15 35 -8 0
-15 7 -15 15 0 8 7 15 15 15 8 0 15 -7 15 -15 0 -8 9 -15 20 -15 16 0 20 -7
20 -35 0 -24 5 -35 15 -35 8 0 15 7 15 15 0 8 7 15 15 15 11 0 15 12 15 50 0
38 -4 50 -15 50 -8 0 -15 -7 -15 -15 0 -10 -11 -15 -35 -15 -24 0 -35 5 -35
15 0 8 -7 15 -15 15 -8 0 -15 -7 -15 -15 0 -8 -7 -15 -15 -15 -8 0 -15 7 -15
15 0 8 -9 15 -20 15 -11 0 -20 -7 -20 -15 0 -8 -7 -15 -15 -15 -8 0 -15 7 -15
15 0 12 -18 15 -100 15 -82 0 -100 -3 -100 -15 0 -8 7 -15 15 -15 8 0 15 -7
15 -15 0 -8 7 -15 15 -15 8 0 15 -9 15 -20 0 -11 -7 -20 -15 -20 -10 0 -15
-10 -15 -30 0 -20 5 -30 15 -30 10 0 15 -11 15 -35 0 -24 -5 -35 -15 -35 -8 0
-15 7 -15 15 0 8 -7 15 -15 15 -8 0 -15 -7 -15 -15 0 -8 -9 -15 -20 -15 -11 0
-20 7 -20 15 0 8 9 15 20 15 18 0 20 7 20 70 0 63 -2 70 -20 70 -13 0 -20 -7
-20 -20 0 -17 -7 -20 -50 -20 -38 0 -50 -4 -50 -15 0 -8 -7 -15 -15 -15 -8 0
-15 7 -15 15 0 8 -7 15 -15 15 -8 0 -15 9 -15 20 0 11 7 20 15 20 8 0 15 -9
15 -20 0 -11 7 -20 15 -20 8 0 15 9 15 20 0 11 -7 20 -15 20 -8 0 -15 7 -15
15 0 8 -7 15 -15 15 -8 0 -15 7 -15 15 0 8 -9 15 -20 15 -11 0 -20 -7 -20 -15
0 -8 -7 -15 -15 -15 -8 0 -15 -7 -15 -15 0 -8 -7 -15 -15 -15 -8 0 -15 -9 -15
-20 0 -13 -7 -20 -20 -20 -17 0 -20 7 -20 50 0 38 -4 50 -15 50 -8 0 -15 -7
-15 -15 0 -8 -9 -15 -20 -15 -16 0 -20 -7 -20 -35 0 -33 2 -35 35 -35 24 0 35
-5 35 -15 0 -8 9 -15 20 -15 16 0 20 -7 20 -35 0 -24 5 -35 15 -35 8 0 15 -7
15 -15 0 -8 -7 -15 -15 -15 -8 0 -15 7 -15 15 0 8 -9 15 -20 15 -13 0 -20 7
-20 20 0 11 -7 20 -15 20 -8 0 -15 7 -15 15 0 8 -9 15 -20 15 -11 0 -20 7 -20
15 0 8 -7 15 -15 15 -8 0 -15 -7 -15 -15 0 -10 -11 -15 -35 -15 -33 0 -35 -2
-35 -35 0 -24 -5 -35 -15 -35 -10 0 -15 -11 -15 -35 0 -24 -5 -35 -15 -35 -12
0 -15 13 -15 55 0 42 3 55 15 55 8 0 15 7 15 15 0 8 -7 15 -15 15 -11 0 -15
12 -15 50 0 38 4 50 15 50 8 0 15 -7 15 -15 0 -8 7 -15 15 -15 8 0 15 7 15 15
0 8 9 15 20 15 11 0 20 -7 20 -15 0 -8 7 -15 15 -15 8 0 15 7 15 15 0 8 -7 15
-15 15 -8 0 -15 7 -15 15 0 8 -9 15 -20 15 -11 0 -20 -7 -20 -15 0 -8 -7 -15
-15 -15 -8 0 -15 7 -15 15 0 12 -14 15 -65 15 -51 0 -65 -3 -65 -15z m430 -95
c0 -38 -4 -50 -15 -50 -8 0 -15 7 -15 15 0 8 -7 15 -15 15 -8 0 -15 7 -15 15
0 8 7 15 15 15 8 0 15 9 15 20 0 11 7 20 15 20 11 0 15 -12 15 -50z m-130 -70
c0 -11 7 -20 15 -20 8 0 15 -7 15 -15 0 -8 9 -15 20 -15 13 0 20 -7 20 -20 0
-11 7 -20 15 -20 8 0 15 -7 15 -15 0 -8 7 -15 15 -15 8 0 15 7 15 15 0 8 -7
15 -15 15 -8 0 -15 9 -15 20 0 11 7 20 15 20 8 0 15 7 15 15 0 8 9 15 20 15
17 0 20 -7 20 -50 0 -38 4 -50 15 -50 8 0 15 -7 15 -15 0 -8 -7 -15 -15 -15
-8 0 -15 -9 -15 -20 0 -13 -7 -20 -20 -20 -16 0 -20 -7 -20 -30 0 -28 3 -30
35 -30 28 0 35 -4 35 -20 0 -16 -7 -20 -35 -20 -28 0 -35 4 -35 20 0 11 -7 20
-15 20 -10 0 -15 10 -15 30 0 20 -5 30 -15 30 -8 0 -15 9 -15 20 0 13 -7 20
-20 20 -11 0 -20 7 -20 15 0 8 -7 15 -15 15 -11 0 -15 12 -15 50 0 43 -3 50
-20 50 -11 0 -20 -7 -20 -15 0 -8 -7 -15 -15 -15 -8 0 -15 7 -15 15 0 8 -7 15
-15 15 -8 0 -15 9 -15 20 0 17 7 20 50 20 43 0 50 -3 50 -20z m300 -35 l0 -55
-50 0 -50 0 0 55 0 55 50 0 50 0 0 -55z m-400 0 c0 -8 7 -15 15 -15 8 0 15 -9
15 -20 0 -11 7 -20 15 -20 8 0 15 -7 15 -15 0 -8 9 -15 20 -15 11 0 20 -7 20
-15 0 -8 7 -15 15 -15 10 0 15 -11 15 -35 0 -28 4 -35 20 -35 11 0 20 -7 20
-15 0 -8 7 -15 15 -15 8 0 15 -9 15 -20 0 -11 7 -20 15 -20 11 0 15 -12 15
-50 0 -43 3 -50 20 -50 16 0 20 7 20 35 0 32 2 35 30 35 20 0 30 5 30 15 0 8
9 15 20 15 11 0 20 -7 20 -15 0 -8 -9 -15 -20 -15 -17 0 -20 -7 -20 -50 0 -43
3 -50 20 -50 13 0 20 -7 20 -20 0 -13 -7 -20 -20 -20 -13 0 -20 7 -20 20 0 11
-7 20 -15 20 -8 0 -15 7 -15 15 0 8 -7 15 -15 15 -8 0 -15 -7 -15 -15 0 -8 -9
-15 -20 -15 -13 0 -20 -7 -20 -20 0 -11 -7 -20 -15 -20 -8 0 -15 -7 -15 -15 0
-8 7 -15 15 -15 8 0 15 -7 15 -15 0 -8 9 -15 20 -15 13 0 20 -7 20 -20 0 -13
-7 -20 -20 -20 -13 0 -20 7 -20 20 0 11 -7 20 -15 20 -8 0 -15 7 -15 15 0 8
-7 15 -15 15 -8 0 -15 -7 -15 -15 0 -10 -11 -15 -35 -15 -24 0 -35 5 -35 15 0
8 -9 15 -20 15 -17 0 -20 -7 -20 -50 0 -38 -4 -50 -15 -50 -8 0 -15 -7 -15
-15 0 -8 7 -15 15 -15 8 0 15 -9 15 -20 0 -13 7 -20 20 -20 13 0 20 7 20 20 0
13 -7 20 -20 20 -11 0 -20 7 -20 15 0 10 11 15 35 15 24 0 35 5 35 15 0 11 12
15 50 15 38 0 50 -4 50 -15 0 -8 -7 -15 -15 -15 -8 0 -15 -7 -15 -15 0 -10
-11 -15 -35 -15 -33 0 -35 -2 -35 -35 0 -33 -2 -35 -35 -35 -24 0 -35 -5 -35
-15 0 -8 -7 -15 -15 -15 -8 0 -15 7 -15 15 0 8 -7 15 -15 15 -8 0 -15 7 -15
15 0 8 -9 15 -20 15 -17 0 -20 7 -20 50 0 43 3 50 20 50 16 0 20 7 20 35 0 24
5 35 15 35 8 0 15 7 15 15 0 8 7 15 15 15 8 0 15 9 15 20 0 11 -7 20 -15 20
-8 0 -15 7 -15 15 0 8 7 15 15 15 8 0 15 -7 15 -15 0 -10 11 -15 35 -15 28 0
35 -4 35 -20 0 -12 7 -20 16 -20 9 0 18 9 21 20 3 11 12 20 19 20 9 0 14 12
14 35 0 24 -5 35 -15 35 -8 0 -15 -9 -15 -20 0 -13 -7 -20 -20 -20 -16 0 -20
7 -20 35 0 24 -5 35 -15 35 -8 0 -15 7 -15 15 0 8 7 15 15 15 10 0 15 11 15
35 0 24 -5 35 -15 35 -10 0 -15 -11 -15 -35 0 -33 -2 -35 -35 -35 l-35 0 0 50
c0 38 -4 50 -15 50 -8 0 -15 9 -15 20 0 11 7 20 15 20 8 0 15 7 15 15 0 8 -7
15 -15 15 -8 0 -15 7 -15 15 0 8 -9 15 -20 15 -16 0 -20 7 -20 35 0 28 4 35
20 35 11 0 20 -7 20 -15z m470 -70 c0 -8 7 -15 15 -15 8 0 15 7 15 15 0 8 7
15 15 15 8 0 15 -7 15 -15 0 -8 -7 -15 -15 -15 -8 0 -15 -7 -15 -15 0 -8 7
-15 15 -15 8 0 15 -9 15 -20 0 -11 -7 -20 -15 -20 -10 0 -15 -10 -15 -30 0
-20 -5 -30 -15 -30 -8 0 -15 7 -15 15 0 10 -11 15 -35 15 -24 0 -35 -5 -35
-15 0 -8 -7 -15 -15 -15 -8 0 -15 7 -15 15 0 8 7 15 15 15 8 0 15 7 15 15 0
10 -11 15 -35 15 -24 0 -35 -5 -35 -15 0 -8 -7 -15 -15 -15 -8 0 -15 7 -15 15
0 8 7 15 15 15 8 0 15 9 15 20 0 16 7 20 35 20 24 0 35 5 35 15 0 8 7 15 15
15 8 0 15 7 15 15 0 8 9 15 20 15 11 0 20 -7 20 -15z m370 -15 c0 -20 5 -30
15 -30 8 0 15 -9 15 -20 0 -11 -7 -20 -15 -20 -8 0 -15 -7 -15 -15 0 -8 -9
-15 -20 -15 -11 0 -20 -7 -20 -15 0 -8 -7 -15 -15 -15 -8 0 -15 7 -15 15 0 8
7 15 15 15 10 0 15 11 15 35 0 24 -5 35 -15 35 -8 0 -15 7 -15 15 0 8 7 15 15
15 8 0 15 7 15 15 0 8 9 15 20 15 16 0 20 -7 20 -30z m-880 -35 c0 -24 -5 -35
-15 -35 -8 0 -15 9 -15 20 0 11 -7 20 -15 20 -8 0 -15 7 -15 15 0 10 10 15 30
15 28 0 30 -3 30 -35z m510 -165 c0 -20 5 -30 15 -30 8 0 15 -9 15 -20 0 -11
-7 -20 -15 -20 -8 0 -15 -7 -15 -15 0 -10 10 -15 30 -15 21 0 30 -5 30 -16 0
-9 9 -18 20 -21 14 -4 20 -14 20 -34 0 -26 -3 -29 -35 -29 -32 0 -35 2 -35 30
0 27 -3 30 -31 30 -22 0 -32 5 -36 20 -3 11 -12 20 -19 20 -8 0 -14 7 -14 15
0 8 7 15 15 15 8 0 15 9 15 20 0 11 -7 20 -15 20 -10 0 -15 10 -15 30 0 28 3
30 35 30 32 0 35 -2 35 -30z m-370 -15 c0 -8 -9 -15 -20 -15 -11 0 -20 7 -20
15 0 8 9 15 20 15 11 0 20 -7 20 -15z m-340 -206 c0 -17 -5 -20 -32 -17 -22 2
-34 9 -36 21 -3 14 4 17 32 17 30 0 36 -4 36 -21z m70 1 c0 -11 -7 -20 -15
-20 -8 0 -15 9 -15 20 0 11 7 20 15 20 8 0 15 -9 15 -20z m-30 -100 l0 -50
-55 0 -55 0 0 50 0 50 55 0 55 0 0 -50z m470 15 c0 -28 -4 -35 -20 -35 -16 0
-20 7 -20 35 0 28 4 35 20 35 16 0 20 -7 20 -35z m130 -15 l0 -50 -50 0 -50 0
0 50 0 50 50 0 50 0 0 -50z m610 0 l0 -50 -55 0 -55 0 0 50 0 50 55 0 55 0 0
-50z m-1110 -15 c0 -28 -4 -35 -20 -35 -11 0 -20 7 -20 15 0 8 -7 15 -15 15
-8 0 -15 9 -15 20 0 16 7 20 35 20 33 0 35 -2 35 -35z m970 15 c0 -16 -7 -20
-35 -20 -28 0 -35 4 -35 20 0 16 7 20 35 20 28 0 35 -4 35 -20z m70 -100 c0
-11 7 -20 15 -20 8 0 15 9 15 20 0 16 7 20 35 20 33 0 35 -2 35 -35 0 -24 5
-35 15 -35 8 0 15 -7 15 -15 0 -8 -7 -15 -15 -15 -8 0 -15 -9 -15 -20 0 -11
-7 -20 -15 -20 -10 0 -15 11 -15 35 0 33 -2 35 -35 35 -24 0 -35 5 -35 15 0 8
-9 15 -20 15 -13 0 -20 7 -20 20 0 13 7 20 20 20 13 0 20 -7 20 -20z m170 0
c0 -11 7 -20 15 -20 8 0 15 -7 15 -15 0 -8 -7 -15 -15 -15 -8 0 -15 7 -15 15
0 8 -9 15 -20 15 -13 0 -20 7 -20 20 0 13 7 20 20 20 13 0 20 -7 20 -20z
m-840 -50 c0 -20 5 -30 15 -30 8 0 15 -9 15 -20 0 -11 -7 -20 -15 -20 -10 0
-15 -11 -15 -35 0 -28 -4 -35 -20 -35 -16 0 -20 7 -20 35 0 24 -5 35 -15 35
-10 0 -15 11 -15 35 0 24 5 35 15 35 8 0 15 7 15 15 0 8 9 15 20 15 16 0 20
-7 20 -30z m100 15 c0 -10 10 -15 30 -15 29 0 30 -1 30 -50 0 -38 -4 -50 -15
-50 -10 0 -15 -11 -15 -35 0 -24 -5 -35 -15 -35 -10 0 -15 -11 -15 -35 0 -28
-4 -35 -20 -35 -16 0 -20 7 -20 35 0 28 4 35 20 35 16 0 20 7 20 35 0 28 -4
35 -20 35 -13 0 -20 -7 -20 -20 0 -11 -7 -20 -15 -20 -8 0 -15 9 -15 20 0 11
7 20 15 20 8 0 15 7 15 15 0 10 11 15 35 15 28 0 35 4 35 20 0 17 -7 20 -50
20 -49 0 -50 1 -50 30 0 28 3 30 35 30 24 0 35 -5 35 -15z m770 -65 c0 -11 -7
-20 -15 -20 -8 0 -15 9 -15 20 0 11 7 20 15 20 8 0 15 -9 15 -20z m-1180 -105
c0 -8 9 -15 20 -15 11 0 20 -7 20 -15 0 -8 7 -15 15 -15 10 0 15 -11 15 -35 0
-33 -2 -35 -35 -35 -33 0 -35 2 -35 35 0 24 -5 35 -15 35 -12 0 -15 -14 -15
-70 0 -56 3 -70 15 -70 8 0 15 -7 15 -15 0 -8 -7 -15 -15 -15 -8 0 -15 7 -15
15 0 8 -7 15 -15 15 -12 0 -15 16 -15 85 0 69 3 85 15 85 8 0 15 7 15 15 0 8
7 15 15 15 8 0 15 -7 15 -15z m-330 -30 c0 -8 7 -15 15 -15 10 0 15 -11 15
-35 0 -24 -5 -35 -15 -35 -8 0 -15 7 -15 15 0 8 -9 15 -20 15 -11 0 -20 -7
-20 -15 0 -8 -7 -15 -15 -15 -11 0 -15 12 -15 50 l0 50 35 0 c24 0 35 -5 35
-15z m100 -70 c0 -8 7 -15 15 -15 8 0 15 -7 15 -15 0 -10 -11 -15 -35 -15 -32
0 -35 2 -35 30 0 23 4 30 20 30 11 0 20 -7 20 -15z m400 0 c0 -8 9 -15 20 -15
11 0 20 -7 20 -15 0 -8 -9 -15 -20 -15 -13 0 -20 -7 -20 -20 0 -16 -7 -20 -35
-20 -24 0 -35 -5 -35 -15 0 -8 -7 -15 -15 -15 -8 0 -15 7 -15 15 0 8 -7 15
-15 15 -8 0 -15 9 -15 20 0 17 7 20 50 20 38 0 50 4 50 15 0 8 -9 15 -20 15
-11 0 -20 7 -20 15 0 10 11 15 35 15 24 0 35 -5 35 -15z m140 -100 c0 -8 -9
-15 -20 -15 -17 0 -20 -7 -20 -50 0 -38 -4 -50 -15 -50 -8 0 -15 -9 -15 -20 0
-11 7 -20 15 -20 10 0 15 -10 15 -30 0 -27 -3 -30 -30 -30 -29 0 -30 1 -30 50
0 43 -3 50 -20 50 -11 0 -20 7 -20 15 0 10 11 15 35 15 33 0 35 2 35 35 0 24
5 35 15 35 8 0 15 7 15 15 0 8 9 15 20 15 11 0 20 -7 20 -15z m-370 -30 c0 -8
-9 -15 -20 -15 -11 0 -20 7 -20 15 0 8 9 15 20 15 11 0 20 -7 20 -15z m270 0
c0 -8 -9 -15 -20 -15 -11 0 -20 7 -20 15 0 8 9 15 20 15 11 0 20 -7 20 -15z
m-110 -35 c0 -18 -7 -20 -65 -20 -58 0 -65 2 -65 20 0 18 7 20 65 20 58 0 65
-2 65 -20z m340 -35 l0 -55 -50 0 -50 0 0 55 0 55 50 0 50 0 0 -55z m-370 -35
c0 -11 -7 -20 -15 -20 -8 0 -15 -7 -15 -15 0 -8 7 -15 15 -15 8 0 15 -7 15
-15 0 -10 -11 -15 -35 -15 -24 0 -35 5 -35 15 0 8 -7 15 -15 15 -8 0 -15 7
-15 15 0 8 7 15 15 15 8 0 15 9 15 20 0 16 7 20 35 20 28 0 35 -4 35 -20z m70
-1 c0 -14 -5 -19 -17 -17 -26 5 -29 38 -4 38 15 0 21 -6 21 -21z"/>
<path d="M1050 1540 c0 -11 7 -20 15 -20 8 0 15 9 15 20 0 11 -7 20 -15 20 -8
0 -15 -9 -15 -20z"/>
<path d="M1180 1675 c0 -8 9 -15 20 -15 11 0 20 7 20 15 0 8 -9 15 -20 15 -11
0 -20 -7 -20 -15z"/>
<path d="M910 1525 c0 -28 4 -35 20 -35 16 0 20 7 20 35 0 28 -4 35 -20 35
-16 0 -20 -7 -20 -35z"/>
<path d="M1320 1540 c0 -11 7 -20 15 -20 8 0 15 9 15 20 0 11 -7 20 -15 20 -8
0 -15 -9 -15 -20z"/>
<path d="M580 1070 c0 -11 7 -20 15 -20 8 0 15 9 15 20 0 11 -7 20 -15 20 -8
0 -15 -9 -15 -20z"/>
<path d="M1180 1070 c0 -13 7 -20 20 -20 13 0 20 7 20 20 0 13 -7 20 -20 20
-13 0 -20 -7 -20 -20z"/>
<path d="M1790 1070 c0 -11 7 -20 15 -20 8 0 15 9 15 20 0 11 -7 20 -15 20 -8
0 -15 -9 -15 -20z"/>
<path d="M1180 465 c0 -8 9 -15 20 -15 11 0 20 7 20 15 0 8 -9 15 -20 15 -11
0 -20 -7 -20 -15z"/>
<path d="M1790 1775 l0 -115 115 0 115 0 0 115 0 115 -115 0 -115 0 0 -115z
m200 0 l0 -85 -85 0 -85 0 0 85 0 85 85 0 85 0 0 -85z"/>
<path d="M1860 1780 l0 -50 50 0 50 0 0 50 0 50 -50 0 -50 0 0 -50z"/>
<path d="M1220 1845 c0 -8 7 -15 15 -15 8 0 15 7 15 15 0 8 -7 15 -15 15 -8 0
-15 -7 -15 -15z"/>
<path d="M1520 1675 c0 -8 7 -15 15 -15 8 0 15 7 15 15 0 8 -7 15 -15 15 -8 0
-15 -7 -15 -15z"/>
<path d="M380 1590 c0 -20 5 -30 15 -30 8 0 15 -9 15 -20 0 -16 7 -20 35 -20
28 0 35 4 35 20 0 16 -7 20 -35 20 -24 0 -35 5 -35 15 0 11 12 15 50 15 38 0
50 4 50 15 0 12 -14 15 -65 15 l-65 0 0 -30z"/>
<path d="M1860 1605 c0 -8 7 -15 15 -15 8 0 15 -7 15 -15 0 -8 7 -15 15 -15 8
0 15 7 15 15 0 8 9 15 20 15 11 0 20 7 20 15 0 11 -12 15 -50 15 -38 0 -50 -4
-50 -15z"/>
<path d="M1990 1605 c0 -8 7 -15 15 -15 8 0 15 7 15 15 0 8 -7 15 -15 15 -8 0
-15 -7 -15 -15z"/>
<path d="M1920 1510 c0 -49 -1 -50 -30 -50 -23 0 -30 -4 -30 -20 0 -11 7 -20
15 -20 8 0 15 -7 15 -15 0 -8 -7 -15 -15 -15 -8 0 -15 -7 -15 -15 0 -10 -11
-15 -35 -15 -28 0 -35 -4 -35 -20 0 -11 7 -20 15 -20 8 0 15 -7 15 -15 0 -8 9
-15 20 -15 11 0 20 7 20 15 0 8 7 15 15 15 10 0 15 11 15 35 0 33 2 35 35 35
24 0 35 5 35 15 0 8 -9 15 -20 15 -13 0 -20 7 -20 20 0 13 7 20 20 20 17 0 20
7 20 50 0 43 -3 50 -20 50 -17 0 -20 -7 -20 -50z"/>
<path d="M480 1505 c0 -8 -9 -15 -20 -15 -16 0 -20 -7 -20 -35 0 -28 4 -35 20
-35 11 0 20 -7 20 -15 0 -8 7 -15 15 -15 10 0 15 11 15 35 l0 35 50 0 c38 0
50 4 50 15 0 8 -7 15 -15 15 -8 0 -15 7 -15 15 0 8 -9 15 -20 15 -11 0 -20 -7
-20 -15 0 -8 -7 -15 -15 -15 -8 0 -15 7 -15 15 0 8 -7 15 -15 15 -8 0 -15 -7
-15 -15z"/>
<path d="M380 1410 c0 -49 1 -50 30 -50 28 0 30 -3 30 -35 0 -24 -5 -35 -15
-35 -8 0 -15 7 -15 15 0 8 -7 15 -15 15 -8 0 -15 -7 -15 -15 0 -8 7 -15 15
-15 8 0 15 -9 15 -20 0 -11 -7 -20 -15 -20 -8 0 -15 -7 -15 -15 0 -8 7 -15 15
-15 8 0 15 7 15 15 0 10 11 15 35 15 33 0 35 2 35 35 0 24 5 35 15 35 8 0 15
9 15 20 0 16 -7 20 -35 20 -24 0 -35 5 -35 15 0 8 -7 15 -15 15 -10 0 -15 11
-15 35 0 24 -5 35 -15 35 -11 0 -15 -12 -15 -50z"/>
<path d="M1990 1440 c0 -11 7 -20 15 -20 8 0 15 9 15 20 0 11 -7 20 -15 20 -8
0 -15 -9 -15 -20z"/>
<path d="M1990 1375 c0 -10 -11 -15 -35 -15 -33 0 -35 -2 -35 -35 0 -24 -5
-35 -15 -35 -8 0 -15 -9 -15 -20 0 -11 7 -20 15 -20 8 0 15 9 15 20 0 13 7 20
20 20 11 0 20 7 20 15 0 8 7 15 15 15 8 0 15 9 15 20 0 11 7 20 15 20 8 0 15
7 15 15 0 8 -7 15 -15 15 -8 0 -15 -7 -15 -15z"/>
<path d="M1960 1255 c0 -24 5 -35 15 -35 8 0 15 7 15 15 0 8 7 15 15 15 8 0
15 9 15 20 0 16 -7 20 -30 20 -28 0 -30 -3 -30 -35z"/>
<path d="M380 1070 c0 -38 4 -50 15 -50 11 0 15 12 15 50 0 38 -4 50 -15 50
-11 0 -15 -12 -15 -50z"/>
<path d="M1320 985 c0 -24 5 -35 15 -35 8 0 15 -7 15 -15 0 -10 11 -15 35 -15
24 0 35 5 35 15 0 8 7 15 15 15 8 0 15 -7 15 -15 0 -8 9 -15 20 -15 16 0 20 7
20 35 0 24 5 35 15 35 8 0 15 7 15 15 0 8 -7 15 -15 15 -8 0 -15 -7 -15 -15 0
-10 -11 -15 -35 -15 -24 0 -35 5 -35 15 0 11 -12 15 -50 15 l-50 0 0 -35z"/>
<path d="M380 970 c0 -11 7 -20 15 -20 8 0 15 9 15 20 0 11 -7 20 -15 20 -8 0
-15 -9 -15 -20z"/>
<path d="M1550 955 c0 -32 -2 -35 -30 -35 -20 0 -30 -5 -30 -15 0 -10 -11 -15
-35 -15 l-35 0 0 -55 c0 -48 -2 -55 -20 -55 -18 0 -20 -7 -20 -65 0 -58 2 -65
20 -65 11 0 20 7 20 15 0 10 11 15 35 15 28 0 35 4 35 20 0 11 7 20 15 20 8 0
15 -9 15 -20 0 -16 7 -20 35 -20 24 0 35 -5 35 -15 0 -8 7 -15 15 -15 10 0 15
11 15 35 0 24 -5 35 -15 35 -8 0 -15 7 -15 15 0 10 -11 15 -35 15 -24 0 -35 5
-35 15 0 8 -7 15 -15 15 -8 0 -15 -7 -15 -15 0 -8 -9 -15 -20 -15 -11 0 -20
-7 -20 -15 0 -8 -7 -15 -15 -15 -10 0 -15 10 -15 30 0 20 5 30 15 30 10 0 15
11 15 35 0 28 4 35 20 35 11 0 20 -7 20 -15 0 -8 7 -15 15 -15 8 0 15 7 15 15
0 8 7 15 15 15 10 0 15 11 15 35 0 28 4 35 20 35 16 0 20 7 20 35 0 28 -4 35
-20 35 -16 0 -20 -7 -20 -35z"/>
<path d="M1620 905 c0 -8 -7 -15 -15 -15 -8 0 -15 -9 -15 -20 0 -13 -7 -20
-20 -20 -11 0 -20 -7 -20 -15 0 -8 -7 -15 -15 -15 -8 0 -15 -9 -15 -20 0 -16
7 -20 35 -20 24 0 35 -5 35 -15 0 -10 10 -15 30 -15 29 0 30 -1 30 -50 0 -38
-4 -50 -15 -50 -8 0 -15 -7 -15 -15 0 -8 -7 -15 -15 -15 -8 0 -15 7 -15 15 0
8 -9 15 -20 15 -11 0 -20 -7 -20 -15 0 -8 9 -15 20 -15 13 0 20 -7 20 -20 0
-13 -7 -20 -20 -20 -11 0 -20 -7 -20 -15 0 -10 11 -15 35 -15 24 0 35 -5 35
-15 0 -10 11 -15 35 -15 24 0 35 5 35 15 0 8 7 15 15 15 11 0 15 -12 15 -50
l0 -50 -35 0 c-28 0 -35 -4 -35 -20 0 -11 -7 -20 -15 -20 -8 0 -15 -7 -15 -15
0 -8 -7 -15 -15 -15 -8 0 -15 7 -15 15 0 8 -9 15 -20 15 -16 0 -20 -7 -20 -30
0 -20 -5 -30 -15 -30 -10 0 -15 10 -15 30 0 20 -5 30 -15 30 -8 0 -15 -7 -15
-15 0 -8 -9 -15 -20 -15 -16 0 -20 7 -20 35 0 24 -5 35 -15 35 -10 0 -15 -11
-15 -35 0 -28 -4 -35 -20 -35 -11 0 -20 -7 -20 -15 0 -12 -16 -15 -80 -15 -73
0 -80 -2 -80 -20 0 -16 -7 -20 -35 -20 -24 0 -35 -5 -35 -15 0 -8 7 -15 15
-15 8 0 15 -7 15 -15 0 -10 11 -15 35 -15 32 0 35 2 35 30 0 20 5 30 15 30 10
0 15 -10 15 -30 0 -23 4 -30 20 -30 16 0 20 7 20 30 0 20 5 30 15 30 10 0 15
-10 15 -30 0 -28 3 -30 35 -30 24 0 35 5 35 15 0 8 -9 15 -20 15 -11 0 -20 7
-20 15 0 8 9 15 20 15 16 0 20 7 20 35 0 24 5 35 15 35 11 0 15 -12 15 -50 l0
-50 50 0 c38 0 50 4 50 15 0 8 9 15 20 15 16 0 20 -7 20 -30 l0 -30 65 0 c51
0 65 3 65 15 0 8 -7 15 -15 15 -8 0 -15 7 -15 15 0 8 7 15 15 15 8 0 15 9 15
20 0 11 7 20 15 20 8 0 15 7 15 15 0 8 9 15 20 15 11 0 20 -7 20 -15 0 -8 -9
-15 -20 -15 -13 0 -20 -7 -20 -20 0 -16 7 -20 35 -20 28 0 35 4 35 20 0 13 7
20 20 20 13 0 20 -7 20 -20 0 -11 7 -20 15 -20 8 0 15 -7 15 -15 0 -8 7 -15
15 -15 8 0 15 -7 15 -15 0 -11 12 -15 50 -15 38 0 50 4 50 15 0 10 -10 15 -30
15 -20 0 -30 5 -30 15 0 8 -9 15 -20 15 -17 0 -20 7 -20 50 0 38 -4 50 -15 50
-8 0 -15 9 -15 20 0 18 7 20 65 20 l65 0 0 50 c0 38 -4 50 -15 50 -8 0 -15 7
-15 15 0 8 -7 15 -15 15 -8 0 -15 -7 -15 -15 0 -11 -12 -15 -50 -15 -38 0 -50
4 -50 15 0 10 -11 15 -35 15 -33 0 -35 2 -35 35 0 28 -4 35 -20 35 -11 0 -20
7 -20 15 0 8 -7 15 -15 15 -8 0 -15 9 -15 20 0 11 -7 20 -15 20 -8 0 -15 7
-15 15 0 8 -9 15 -20 15 -11 0 -20 7 -20 15 0 8 9 15 20 15 18 0 20 7 20 55 0
48 -2 55 -20 55 -11 0 -20 7 -20 15 0 8 -7 15 -15 15 -8 0 -15 -7 -15 -15z
m30 -70 c0 -54 0 -55 -30 -55 -28 0 -30 3 -30 35 0 24 5 35 15 35 8 0 15 9 15
20 0 11 7 20 15 20 12 0 15 -13 15 -55z m70 -220 c0 -24 -5 -35 -15 -35 -8 0
-15 -7 -15 -15 0 -10 -11 -15 -35 -15 -33 0 -35 2 -35 35 0 33 2 35 35 35 24
0 35 5 35 15 0 8 7 15 15 15 10 0 15 -11 15 -35z m135 -150 l0 -50 -50 0 -50
0 -3 39 c-5 60 1 68 55 64 l48 -3 0 -50z m135 35 c0 -11 -7 -20 -15 -20 -8 0
-15 9 -15 20 0 11 7 20 15 20 8 0 15 -9 15 -20z m-300 -120 c0 -23 -4 -30 -20
-30 -16 0 -20 -7 -20 -35 0 -24 -5 -35 -15 -35 -10 0 -15 11 -15 35 0 24 5 35
15 35 10 0 15 10 15 30 0 23 4 30 20 30 16 0 20 -7 20 -30z"/>
<path d="M1790 465 c0 -8 7 -15 15 -15 8 0 15 7 15 15 0 8 -7 15 -15 15 -8 0
-15 -7 -15 -15z"/>
<path d="M680 870 c0 -11 7 -20 15 -20 8 0 15 -7 15 -15 0 -8 9 -15 20 -15 11
0 20 7 20 15 0 10 10 15 30 15 23 0 30 4 30 20 0 16 -7 20 -30 20 -23 0 -30
-4 -30 -20 0 -13 -7 -20 -20 -20 -13 0 -20 7 -20 20 0 11 -7 20 -15 20 -8 0
-15 -9 -15 -20z"/>
<path d="M1350 870 c0 -11 7 -20 15 -20 8 0 15 9 15 20 0 11 -7 20 -15 20 -8
0 -15 -9 -15 -20z"/>
<path d="M380 835 c0 -8 7 -15 15 -15 8 0 15 7 15 15 0 8 -7 15 -15 15 -8 0
-15 -7 -15 -15z"/>
<path d="M510 835 c0 -8 7 -15 15 -15 10 0 15 -11 15 -35 0 -28 4 -35 20 -35
11 0 20 7 20 15 0 8 7 15 15 15 8 0 15 9 15 20 0 16 -7 20 -35 20 -24 0 -35 5
-35 15 0 8 -7 15 -15 15 -8 0 -15 -7 -15 -15z"/>
<path d="M650 785 c0 -24 5 -35 15 -35 10 0 15 11 15 35 0 24 -5 35 -15 35
-10 0 -15 -11 -15 -35z"/>
<path d="M1720 765 c0 -8 7 -15 15 -15 8 0 15 7 15 15 0 8 -7 15 -15 15 -8 0
-15 -7 -15 -15z"/>
<path d="M1280 670 c0 -43 3 -50 20 -50 17 0 20 7 20 50 0 43 -3 50 -20 50
-17 0 -20 -7 -20 -50z"/>
<path d="M1750 700 c0 -13 7 -20 20 -20 13 0 20 7 20 20 0 13 -7 20 -20 20
-13 0 -20 -7 -20 -20z"/>
<path d="M1350 635 c0 -8 -7 -15 -15 -15 -10 0 -15 -11 -15 -35 0 -24 5 -35
15 -35 8 0 15 7 15 15 0 8 7 15 15 15 10 0 15 -10 15 -30 0 -23 4 -30 20 -30
11 0 20 7 20 15 0 8 7 15 15 15 8 0 15 -7 15 -15 0 -8 9 -15 20 -15 11 0 20 7
20 15 0 8 7 15 15 15 8 0 15 7 15 15 0 8 -7 15 -15 15 -8 0 -15 9 -15 20 0 11
7 20 15 20 8 0 15 7 15 15 0 10 -11 15 -35 15 -24 0 -35 -5 -35 -15 0 -10 -11
-15 -35 -15 -24 0 -35 5 -35 15 0 8 -7 15 -15 15 -8 0 -15 -7 -15 -15z"/>
<path d="M1520 485 c0 -24 5 -35 15 -35 10 0 15 11 15 35 0 24 -5 35 -15 35
-10 0 -15 -11 -15 -35z"/>
<path d="M380 365 l0 -115 115 0 115 0 0 115 0 115 -115 0 -115 0 0 -115z
m200 0 l0 -85 -85 0 -85 0 0 85 0 85 85 0 85 0 0 -85z"/>
<path d="M440 360 l0 -50 50 0 50 0 0 50 0 50 -50 0 -50 0 0 -50z"/>
<path d="M1590 465 c0 -8 7 -15 15 -15 8 0 15 7 15 15 0 8 -7 15 -15 15 -8 0
-15 -7 -15 -15z"/>
<path d="M1960 345 c0 -32 2 -35 30 -35 28 0 30 3 30 35 0 32 -2 35 -30 35
-28 0 -30 -3 -30 -35z"/>
<path d="M710 265 c0 -8 9 -15 20 -15 11 0 20 7 20 15 0 8 -9 15 -20 15 -11 0
-20 -7 -20 -15z"/>
<path d="M1820 265 c0 -8 9 -15 20 -15 11 0 20 7 20 15 0 8 -9 15 -20 15 -11
0 -20 -7 -20 -15z"/>
</g>
</svg>
